PathFileType	4	(X/Y/Z)	DARI_DATA/Captury_Subj6_bilateral_squat02.trc
DataRate	CameraRate	NumFrames	NumMarkers	Units	OrigDataRate	OrigDataStartFrame	OrigNumFrames
60	60	4	47	mm	59.99879837036133	103	204
Frame#	Time		LeftUpLeg_		RightUpLeg_		LeftLeg_		RightLeg_		LeftFoot_		RightFoot_		LeftToeBase_		RightToeBase_		Knee_Lateral_r		Knee_Lateral_l		Ankle_Lateral_r		Ankle_Lateral_l		LeftArm_		LeftForeArm_		LeftHand_		LeftHandEE		RightArm_		RightForeArm_		RightHand_		RightHandEE		Spine_		Spine1_		Spine2_		Spine3_		Spine4_		Spine5_		Spine_x		Spine_y		Spine_z		RASI		LASI		RIPS		LIPS		RTHI		LTHI		RTIB		LTIB		RTOE		LTOE		RHEE		LHEE		RHipAngles		LHipAngles		RKneeAngles		LKneeAngles		RAnkleAngles		LAnkleAngles
			X1	Y1	Z1	X2	Y2	Z2	X3	Y3	Z3	X4	Y4	Z4	X5	Y5	Z5	X6	Y6	Z6	X7	Y7	Z7	X8	Y8	Z8	X9	Y9	Z9	X10	Y10	Z10	X11	Y11	Z11	X12	Y12	Z12	X13	Y13	Z13	X14	Y14	Z14	X15	Y15	Z15	X16	Y16	Z16	X17	Y17	Z17	X18	Y18	Z18	X19	Y19	Z19	X20	Y20	Z20	X21	Y21	Z21	X22	Y22	Z22	X23	Y23	Z23	X24	Y24	Z24	X25	Y25	Z25	X26	Y26	Z26	X27	Y27	Z27	X28	Y28	Z28	X29	Y29	Z29	X30	Y30	Z30	X31	Y31	Z31	X32	Y32	Z32	X33	Y33	Z33	X34	Y34	Z34	X35	Y35	Z35	X36	Y36	Z36	X37	Y37	Z37	X38	Y38	Z38	X39	Y39	Z39	X40	Y40	Z40	X41	Y41	Z41	X42	Y42	Z42	X43	Y43	Z43	X44	Y44	Z44	X45	Y45	Z45	X46	Y46	Z46	X47	Y47	Z47

103	1.70000	-99.49458	828.76538	252.18405	97.41673	829.99799	259.87891	-218.03551	507.27545	-84.44516	210.71002	516.21802	-85.71298	-190.57672	90.21106	64.54794	209.32364	100.40347	69.18040	-228.25748	33.35117	-70.35408	238.55557	33.68500	-63.27934	264.30255	517.04187	-72.79726	-270.75223	505.69333	-68.37965	257.90259	103.90273	103.23994	-237.02922	89.90791	101.61932	-148.69595	1304.08545	-102.86237	-207.33803	1275.00647	-440.46616	-198.75752	1257.91919	-713.18286	-202.65955	1256.25696	-812.86499	169.42125	1291.27893	-99.25362	248.34631	1294.00061	-433.95380	225.85056	1320.10010	-705.15991	223.05750	1328.31616	-804.55414	-0.87711	937.23273	234.61461	1.65516	1024.85889	164.21161	3.14566	1099.24670	132.25005	5.12365	1200.08667	105.90996	10.05482	1314.91516	4.08637	0.00000	0.00000	0.00000	54.23690	937.57770	236.76834	-0.36674	988.14404	213.39929	-2.99774	958.45142	285.48291	169.24823	856.79614	131.72110	-161.43579	854.72620	118.79871	41.63549	919.69312	279.58777	-46.54691	919.14117	276.14178	223.86746	684.24841	121.19736	-226.88379	676.15387	122.00336	257.18954	325.77875	-21.83105	-246.88902	250.45877	-4.35298	255.42220	24.21024	-146.27861	-247.08034	34.93574	-153.45834	200.27400	28.95662	131.04059	-186.34975	15.06078	122.40813	-71.24606	8.80019	7.14899	-71.72334	13.49585	13.81668	-63.20343	0.61205	-0.09361	-62.07033	0.67478	0.02604	-9.48154	-1.90994	1.29396	-13.27303	-3.56659	7.76135
104	1.71667	-99.35240	815.07489	258.37238	97.55257	816.50543	266.19656	-219.00528	506.03607	-89.34183	211.09645	514.72546	-89.84219	-190.19562	90.76059	64.31985	209.63428	100.39536	68.97871	-228.27336	32.95179	-70.06642	238.53741	34.13448	-63.78255	264.77954	515.67407	-77.31686	-271.82886	504.44519	-73.63202	258.45972	103.79110	102.69461	-236.90097	90.47873	101.07237	-149.28680	1277.87024	-107.96892	-208.84660	1247.47925	-445.29639	-202.19479	1229.73816	-718.02527	-205.36397	1228.74561	-817.74231	168.58733	1267.25745	-104.15767	248.56421	1268.41650	-438.61719	226.54382	1293.50305	-709.95789	223.16319	1302.55750	-809.26099	-0.77530	923.35645	239.48032	1.70646	1008.94873	167.51387	3.04158	1081.96960	133.91566	4.68224	1181.45410	104.75894	9.14329	1292.21606	-0.64397	0.00000	0.00000	0.00000	54.33693	923.75690	241.67026	-0.27420	973.99054	217.61137	-2.94442	945.22748	290.06949	169.46660	841.68683	137.75748	-161.20674	839.28430	124.61783	41.71235	906.41895	284.70715	-46.46721	905.77826	281.20325	224.28748	676.37659	122.08734	-227.43991	668.09906	122.51578	257.49069	324.76532	-24.48858	-246.94350	249.92972	-6.69158	254.98279	25.06305	-146.91130	-247.12213	34.00590	-153.17325	201.40964	28.76736	130.74458	-186.36546	16.09073	122.82605	-73.77644	8.71815	6.51791	-74.37449	13.71219	13.09185	-65.62718	0.45373	-0.12828	-64.72736	0.54716	-0.00231	-10.22815	-1.79160	1.65824	-13.54860	-3.13899	8.34437
105	1.73333	-99.18152	801.58203	263.93466	97.72139	802.66486	271.86298	-219.84694	504.68924	-93.86615	211.40627	512.61932	-93.75464	-189.94733	91.05341	63.95338	209.94212	99.90924	69.22958	-228.27698	32.49081	-70.03427	238.64188	34.04565	-63.77324	265.16061	513.64465	-81.54501	-272.75629	503.06949	-78.45082	258.95331	103.25490	102.67989	-236.86072	90.79308	100.44006	-149.85410	1252.16943	-112.68909	-210.68506	1220.00671	-449.62515	-204.87970	1201.26038	-722.30603	-207.31549	1200.26184	-822.04358	167.72507	1243.01562	-109.15232	248.55257	1242.10217	-443.40799	226.65677	1266.71826	-714.80188	223.65092	1276.28760	-814.06873	-0.36465	909.48706	244.16119	2.21455	993.29474	170.81480	3.45513	1065.06067	135.64145	4.76488	1163.21436	103.65012	8.51315	1269.81763	-5.34105	0.00000	0.00000	0.00000	54.74700	909.79010	246.38028	0.25620	959.92804	221.85352	-2.51656	931.80133	294.55716	169.76237	826.57745	143.25270	-160.90755	824.75909	129.93820	42.06101	892.85345	289.55865	-46.11763	892.36859	286.00812	224.65659	667.97327	122.82965	-227.88728	660.08044	122.94740	257.75922	323.22852	-26.74052	-247.04100	249.25647	-8.91524	254.76059	25.31989	-147.00290	-247.03027	33.13634	-153.16684	202.42996	28.12997	130.91054	-186.65712	16.79952	123.01918	-76.01376	8.73405	5.87913	-76.67833	13.81127	12.57090	-67.99180	0.38422	-0.12471	-67.20507	0.47034	-0.02024	-10.97531	-1.70475	1.95604	-13.82278	-2.85399	8.92213
106	1.75000	-98.84142	788.32312	269.24509	98.09154	789.08209	276.43130	-220.58707	503.42505	-97.82169	212.10614	510.28076	-97.73102	-189.97839	91.19867	63.51097	210.02637	99.33701	69.65036	-228.38849	32.11288	-70.22374	238.59763	33.78928	-63.53606	265.91565	511.40002	-85.77523	-273.56885	501.79227	-82.65858	259.15573	102.61106	102.93399	-237.05841	90.96715	99.78261	-150.43999	1226.65857	-116.87455	-212.24213	1192.60034	-453.44745	-206.77260	1172.54126	-726.04187	-208.46272	1171.59241	-825.79535	166.92157	1219.25159	-113.83124	248.44234	1216.18103	-447.90561	226.53302	1239.57239	-719.40662	223.41850	1249.18945	-818.66553	0.10499	895.90045	248.36478	2.52076	978.07684	173.76515	3.63913	1048.66187	137.11792	4.71653	1145.50012	102.42758	7.88228	1248.00415	-9.91398	0.00000	0.00000	0.00000	55.22504	896.11285	250.37614	0.73788	946.18640	225.71008	-1.81600	918.56299	298.61447	169.69580	811.97607	147.39246	-161.02454	810.70154	135.32423	42.66871	879.49634	293.71649	-45.52338	879.15649	290.49829	225.28825	659.63312	123.03877	-228.17601	652.25360	123.56406	258.15094	321.48566	-28.84966	-247.28354	248.59851	-10.91461	254.48874	25.39269	-146.84332	-246.92184	32.48014	-153.40732	203.01950	27.43761	131.25082	-187.35188	17.27448	123.02193	-78.04993	8.96856	5.43911	-78.76713	13.72358	11.93906	-70.28651	0.24884	-0.08887	-69.51133	0.41602	-0.01696	-11.73271	-1.65926	2.20315	-14.08830	-2.71375	9.46066
